DBRep_DrawableShape

CASCADE Topology V1, (c) Matra-Datavision
Locations 32
1
              1               0               0               0 
              0               1               0               0 
              0               0               1               0 
1
              1               0               0               0 
              0               1               0               0 
              0               0               1               0 
1
              1               0               0               0 
              0               1               0               0 
              0               0               1               0 
2  2 1 3 -1 0
1
              1               0               0               0 
              0               1               0               0 
              0               0               1               0 
2  5 -1 3 1 2 -1 0
1
              1               0               0               0 
              0               1               0               0 
              0               0               1               0 
1
              1               0               0               0 
              0               1               0               0 
              0               0               1             -20 
1
              1               0               0               0 
              0               1               0               0 
              0               0               1               0 
2  7 1 8 1 9 -1 0
2  9 1 8 -1 7 -1 0
2  3 1 2 -1 9 1 8 -1 7 -1 0
2  5 -1 3 1 2 -1 9 1 8 -1 7 -1 0
1
              1               0               0               0 
              0               1               0               0 
              0               0               1              40 
2  7 1 8 1 9 -1 14 1 0
2  14 -1 9 1 8 -1 7 -1 0
2  3 1 2 -1 14 -1 9 1 8 -1 7 -1 0
2  5 -1 3 1 2 -1 14 -1 9 1 8 -1 7 -1 0
2  9 -1 2 1 3 -1 0
2  7 1 8 1 9 -1 2 1 3 -1 0
1
              1               0               0               0 
              0               1               0               0 
              0               0               1               0 
1
              1               0               0               0 
              0              -1               0               0 
              0               0              -1             -20 
2  21 1 22 1 3 -1 0
2  3 1 22 -1 21 -1 0
2  5 -1 3 1 22 -1 21 -1 0
2  9 -1 14 1 2 1 3 -1 0
2  7 1 8 1 9 -1 14 1 2 1 3 -1 0
1
              1               0               0               0 
              0               1               0               0 
              0               0               1              40 
2  21 1 22 1 3 -1 28 1 0
2  28 -1 3 1 22 -1 21 -1 0
2  5 -1 28 -1 3 1 22 -1 21 -1 0
2  5 -1 0
Curve2ds 32
1 3.03019e-12 0 0 -1 
1 1.5707963267948961 0 0 -1 
1 0 0 1 0 
1 0 -40 1 0 
1 6.2831853071765984 0 0 -1 
1 1.5707963267948966 0 0 -1 
1 0 0 1 0 
1 0 0 1 0 
1 0 0 1 0 
1 0 0 1 0 
1 0 0 1 0 
1 0 0 1 0 
1 0 0 1 0 
1 0 -40 1 0 
1 0 -40 1 0 
1 0 -40 1 0 
1 0 -40 1 0 
1 0 -40 1 0 
1 0 -40 1 0 
1 0 -40 1 0 
1 4.7123889803846382 0 0 -1 
1 3.1415926535899268 0 0 -1 
1 4.7123889803808927 0 0 -1 
1 3.1415926535901733 0 0 -1 
1 1.4938470000000001e-11 0 0 -1 
1 6.283185307164433 0 0 -1 
1 4.7123889803846479 0 0 -1 
1 4.7123889803609531 0 0 -1 
1 3.1415926536200649 0 0 -1 
1 3.1415926535878933 0 0 -1 
1 1.5707963268168483 0 0 -1 
1 1.5707963267951555 0 0 -1 
Curves 48
1 4.9999999999995435 15.00000000000759 -20 0 0 1 
1 2.5000000000005009 17.499999999998973 -20 0 0 1 
2 2.5000000000005107 15.000000000000014 0 0 0 1 1 0 -0 -0 1 0 2.4999999999989599
2 2.5000000000005107 15.000000000000014 0 0 0 1 1 0 -0 -0 1 0 2.4999999999989599
1 4.9999999999996163 -15.000000000007484 -20 0 0 1 
1 4.9999999999996163 15.00000000000759 0 0 -1 0 
1 4.9999999999996163 15.00000000000759 0 0 -1 0 
1 -2.4999999999995102 17.499999999998977 -20 0 0 1 
1 -2.4999999999995102 17.499999999998973 0 1 0 0 
1 -2.4999999999995102 17.499999999998973 0 1 0 0 
2 2.5000000000005107 -15.000000000000014 0 0 0 1 1 0 -0 -0 1 0 2.4999999999991052
2 -2.4999999999995102 14.999999999998975 0 0 0 1 1 0 -0 -0 1 0 2.5
1 2.5000000000003815 -17.499999999999119 0 -1 2.1320000000000001e-14 0 
1 -4.9999999999995088 -15.000000000000965 0 0 1 0 
2 -2.5000000000005107 -15.000000000000014 0 0 0 1 1 0 -0 -0 1 0 2.4999999999989981
1 2.9999999999994706 15.000000000007484 0 0 -1 0 
2 2.5000000000005107 -15.000000000000014 0 0 0 1 1 0 -0 -0 1 0 0.49999999999896011
1 2.5000000000004898 -15.499999999998973 0 -1 0 0 
2 -2.4999999999995102 -14.999999999998975 0 0 0 1 1 0 -0 -0 1 0 0.499999999999998
1 -2.9999999999995088 -15.000000000014111 0 0 1 0 
2 -2.5000000000005107 15.000000000000014 0 0 0 1 1 0 -0 -0 1 0 0.49999999999899813
1 -2.5000000000114864 15.499999999999012 0 1 -7.4600000000000005e-15 0 
2 2.5000000000005107 15.000000000000014 0 0 0 1 1 0 -0 -0 1 0 0.49999999999896017
2 2.5000000000005107 -15.000000000000014 0 0 0 1 1 0 -0 -0 1 0 2.4999999999991052
2 -2.4999999999995102 14.999999999998975 0 0 0 1 1 0 -0 -0 1 0 2.5
1 2.5000000000003815 -17.499999999999119 0 -1 2.1320000000000001e-14 0 
1 -4.9999999999995088 -15.000000000000965 0 0 1 0 
2 -2.5000000000005107 -15.000000000000014 0 0 0 1 1 0 -0 -0 1 0 2.4999999999989981
1 2.9999999999994706 15.000000000007484 0 0 -1 0 
2 2.5000000000005107 -15.000000000000014 0 0 0 1 1 0 -0 -0 1 0 0.49999999999896011
1 2.5000000000004898 -15.499999999998973 0 -1 0 0 
2 -2.4999999999995102 -14.999999999998975 0 0 0 1 1 0 -0 -0 1 0 0.499999999999998
1 -2.9999999999995088 -15.000000000014111 0 0 1 0 
2 -2.5000000000005107 15.000000000000014 0 0 0 1 1 0 -0 -0 1 0 0.49999999999899813
1 -2.5000000000114864 15.499999999999012 0 1 -7.4600000000000005e-15 0 
2 2.5000000000005107 15.000000000000014 0 0 0 1 1 0 -0 -0 1 0 0.49999999999896017
1 2.5000000000003815 -17.499999999999119 -20 0 0 1 
1 -4.9999999999995097 14.999999999998641 -20 0 0 1 
1 -2.5000000000107452 -17.499999999999012 -20 0 0 1 
1 -4.9999999999995088 -15.000000000000965 -20 0 0 1 
1 2.9999999999994706 -15.000000000007484 -20 0 0 1 
1 2.9999999999994706 15.00000000000759 -20 0 0 1 
1 2.5000000000004898 15.499999999998973 -20 0 0 1 
1 -2.5000000000113785 15.499999999998973 -20 0 0 1 
1 -2.9999999999995084 15.000000000014111 -20 0 0 1 
1 -2.9999999999995088 -15.000000000000966 -20 0 0 1 
1 -2.5000000000114864 -15.499999999999012 -20 0 0 1 
1 2.5000000000003815 -15.499999999998975 -20 0 0 1 
Polygon3D 0
PolygonOnTriangulations 96
2 1 2 
p 0.0566666675110639 1 0 40 
2 1 2 
p 0.0566666675110639 1 0 40 
2 10 9 
p 0.0566666675110639 1 0 40 
2 4 3 
p 0.0566666675110639 1 0 40 
8 1 11 12 13 14 15 16 10 
p 0.0566666675110639 1 3.03e-12 0.224399475259011 0.448798950514992 0.673198425770972 0.897597901026953 1.12199737628293 1.34639685153891 1.5707963267949 
8 1 2 3 4 5 6 7 8 
p 0.0566666675110639 1 3.03e-12 0.224399475259011 0.448798950514992 0.673198425770972 0.897597901026953 1.12199737628293 1.34639685153891 1.5707963267949 
8 2 3 4 5 6 7 8 9 
p 0.0566666675110639 1 3.03e-12 0.224399475259011 0.448798950514992 0.673198425770972 0.897597901026953 1.12199737628293 1.34639685153891 1.5707963267949 
8 1 2 3 4 5 6 7 8 
p 0.0566666675110639 1 3.03e-12 0.224399475259011 0.448798950514992 0.673198425770972 0.897597901026953 1.12199737628293 1.34639685153891 1.5707963267949 
2 10 9 
p 0.0566666675110639 1 0 40 
2 4 3 
p 0.0566666675110639 1 0 40 
2 1 4 
p 0.0566666675110639 1 0 30.0000000000151 
2 1 32 
p 0.0566666675110639 1 0 30.0000000000151 
2 2 3 
p 0.0566666675110639 1 0 30.0000000000151 
2 1 32 
p 0.0566666675110639 1 0 30.0000000000151 
2 1 2 
p 0.0566666675110639 1 0 40 
2 1 2 
p 0.0566666675110639 1 0 40 
2 1 4 
p 0.0566666675110639 1 0 5 
2 9 8 
p 0.0566666675110639 1 0 5 
2 2 3 
p 0.0566666675110639 1 0 5 
2 9 8 
p 0.0566666675110639 1 0 5 
8 1 11 12 13 14 15 16 10 
p 0.0566666675110639 1 4.71238898038464 4.93678845564063 5.16118793089663 5.38558740615262 5.60998688140862 5.83438635666461 6.05878583192061 6.2831853071766 
8 25 26 27 28 29 30 31 32 
p 0.0566666675110639 1 4.71238898038464 4.93678845564063 5.16118793089663 5.38558740615262 5.60998688140862 5.83438635666461 6.05878583192061 6.2831853071766 
8 1 11 12 13 14 15 16 10 
p 0.0566666675110639 1 1.5707963267949 1.79519580205133 2.01959527730776 2.2439947525642 2.46839422782063 2.69279370307706 2.91719317833349 3.14159265358993 
8 9 10 11 12 13 14 15 16 
p 0.0566666675110639 1 1.5707963267949 1.79519580205133 2.01959527730776 2.2439947525642 2.46839422782063 2.69279370307706 2.91719317833349 3.14159265358993 
2 25 24 
p 0.0566666675110639 1 0 5.00000000001187 
2 1 4 
p 0.0566666675110639 1 0 5.00000000001187 
2 17 16 
p 0.0566666675110639 1 0 29.9999999999996 
2 1 4 
p 0.0566666675110639 1 0 29.9999999999996 
8 1 11 12 13 14 15 16 10 
p 0.0566666675110639 1 3.14159265359017 3.36599212884599 3.59039160410181 3.81479107935762 4.03919055461344 4.26359002986926 4.48798950512507 4.71238898038089 
8 17 18 19 20 21 22 23 24 
p 0.0566666675110639 1 3.14159265359017 3.36599212884599 3.59039160410181 3.81479107935762 4.03919055461344 4.26359002986926 4.48798950512507 4.71238898038089 
2 33 34 
p 0.0566666675110639 1 0 30.0000000000151 
2 1 4 
p 0.0566666675110639 1 0 30.0000000000151 
8 1 11 12 13 14 15 16 10 
p 0.0566666675110639 1 4.71238898038465 4.9367884556389 5.16118793089316 5.38558740614741 5.60998688140167 5.83438635665592 6.05878583191018 6.28318530716443 
8 58 59 60 61 62 63 64 34 
p 0.0566666675110639 1 4.71238898038465 4.9367884556389 5.16118793089316 5.38558740614741 5.60998688140167 5.83438635665592 6.05878583191018 6.28318530716443 
2 58 57 
p 0.0566666675110639 1 0 5.00000000001187 
2 1 4 
p 0.0566666675110639 1 0 5.00000000001187 
8 1 11 12 13 14 15 16 10 
p 0.0566666675110639 1 3.14159265362006 3.36599212886876 3.59039160411746 3.81479107936616 4.03919055461486 4.26359002986356 4.48798950511225 4.71238898036095 
8 50 51 52 53 54 55 56 57 
p 0.0566666675110639 1 3.14159265362006 3.36599212886876 3.59039160411746 3.81479107936616 4.03919055461486 4.26359002986356 4.48798950511225 4.71238898036095 
2 50 49 
p 0.0566666675110639 1 0 30.0000000000151 
2 1 4 
p 0.0566666675110639 1 0 30.0000000000151 
8 1 11 12 13 14 15 16 10 
p 0.0566666675110639 1 1.57079632681685 1.79519580206985 2.01959527732286 2.24399475257587 2.46839422782887 2.69279370308188 2.91719317833489 3.14159265358789 
8 42 43 44 45 46 47 48 49 
p 0.0566666675110639 1 1.57079632681685 1.79519580206985 2.01959527732286 2.24399475257587 2.46839422782887 2.69279370308188 2.91719317833489 3.14159265358789 
2 42 41 
p 0.0566666675110639 1 0 5.00000000001187 
2 1 4 
p 0.0566666675110639 1 0 5.00000000001187 
8 1 11 12 13 14 15 16 10 
p 0.0566666675110639 1 1.4938e-11 0.224399475269255 0.448798950523571 0.673198425777888 0.897597901032205 1.12199737628652 1.34639685154084 1.57079632679516 
8 33 35 36 37 38 39 40 41 
p 0.0566666675110639 1 1.4938e-11 0.224399475269255 0.448798950523571 0.673198425777888 0.897597901032205 1.12199737628652 1.34639685154084 1.57079632679516 
8 2 3 4 5 6 7 8 9 
p 0.0566666675110639 1 4.71238898038464 4.93678845564063 5.16118793089663 5.38558740615262 5.60998688140862 5.83438635666461 6.05878583192061 6.2831853071766 
8 25 26 27 28 29 30 31 32 
p 0.0566666675110639 1 4.71238898038464 4.93678845564063 5.16118793089663 5.38558740615262 5.60998688140862 5.83438635666461 6.05878583192061 6.2831853071766 
8 2 3 4 5 6 7 8 9 
p 0.0566666675110639 1 1.5707963267949 1.79519580205133 2.01959527730776 2.2439947525642 2.46839422782063 2.69279370307706 2.91719317833349 3.14159265358993 
8 9 10 11 12 13 14 15 16 
p 0.0566666675110639 1 1.5707963267949 1.79519580205133 2.01959527730776 2.2439947525642 2.46839422782063 2.69279370307706 2.91719317833349 3.14159265358993 
2 25 24 
p 0.0566666675110639 1 0 5.00000000001187 
2 2 3 
p 0.0566666675110639 1 0 5.00000000001187 
2 17 16 
p 0.0566666675110639 1 0 29.9999999999996 
2 2 3 
p 0.0566666675110639 1 0 29.9999999999996 
8 2 3 4 5 6 7 8 9 
p 0.0566666675110639 1 3.14159265359017 3.36599212884599 3.59039160410181 3.81479107935762 4.03919055461344 4.26359002986926 4.48798950512507 4.71238898038089 
8 17 18 19 20 21 22 23 24 
p 0.0566666675110639 1 3.14159265359017 3.36599212884599 3.59039160410181 3.81479107935762 4.03919055461344 4.26359002986926 4.48798950512507 4.71238898038089 
2 33 34 
p 0.0566666675110639 1 0 30.0000000000151 
2 2 3 
p 0.0566666675110639 1 0 30.0000000000151 
8 2 3 4 5 6 7 8 9 
p 0.0566666675110639 1 4.71238898038465 4.9367884556389 5.16118793089316 5.38558740614741 5.60998688140167 5.83438635665592 6.05878583191018 6.28318530716443 
8 58 59 60 61 62 63 64 34 
p 0.0566666675110639 1 4.71238898038465 4.9367884556389 5.16118793089316 5.38558740614741 5.60998688140167 5.83438635665592 6.05878583191018 6.28318530716443 
2 58 57 
p 0.0566666675110639 1 0 5.00000000001187 
2 2 3 
p 0.0566666675110639 1 0 5.00000000001187 
8 2 3 4 5 6 7 8 9 
p 0.0566666675110639 1 3.14159265362006 3.36599212886876 3.59039160411746 3.81479107936616 4.03919055461486 4.26359002986356 4.48798950511225 4.71238898036095 
8 50 51 52 53 54 55 56 57 
p 0.0566666675110639 1 3.14159265362006 3.36599212886876 3.59039160411746 3.81479107936616 4.03919055461486 4.26359002986356 4.48798950511225 4.71238898036095 
2 50 49 
p 0.0566666675110639 1 0 30.0000000000151 
2 2 3 
p 0.0566666675110639 1 0 30.0000000000151 
8 2 3 4 5 6 7 8 9 
p 0.0566666675110639 1 1.57079632681685 1.79519580206985 2.01959527732286 2.24399475257587 2.46839422782887 2.69279370308188 2.91719317833489 3.14159265358789 
8 42 43 44 45 46 47 48 49 
p 0.0566666675110639 1 1.57079632681685 1.79519580206985 2.01959527732286 2.24399475257587 2.46839422782887 2.69279370308188 2.91719317833489 3.14159265358789 
2 42 41 
p 0.0566666675110639 1 0 5.00000000001187 
2 2 3 
p 0.0566666675110639 1 0 5.00000000001187 
8 2 3 4 5 6 7 8 9 
p 0.0566666675110639 1 1.4938e-11 0.224399475269255 0.448798950523571 0.673198425777888 0.897597901032205 1.12199737628652 1.34639685154084 1.57079632679516 
8 33 35 36 37 38 39 40 41 
p 0.0566666675110639 1 1.4938e-11 0.224399475269255 0.448798950523571 0.673198425777888 0.897597901032205 1.12199737628652 1.34639685154084 1.57079632679516 
2 1 2 
p 0.0566666675110639 1 0 40 
2 1 2 
p 0.0566666675110639 1 0 40 
2 10 9 
p 0.0566666675110639 1 0 40 
2 4 3 
p 0.0566666675110639 1 0 40 
2 10 9 
p 0.0566666675110639 1 0 40 
2 4 3 
p 0.0566666675110639 1 0 40 
2 1 2 
p 0.0566666675110639 1 0 40 
2 1 2 
p 0.0566666675110639 1 0 40 
2 1 2 
p 0.0566666675110639 1 0 40 
2 1 2 
p 0.0566666675110639 1 0 40 
2 10 9 
p 0.0566666675110639 1 0 40 
2 4 3 
p 0.0566666675110639 1 0 40 
2 1 2 
p 0.0566666675110639 1 0 40 
2 1 2 
p 0.0566666675110639 1 0 40 
2 10 9 
p 0.0566666675110639 1 0 40 
2 4 3 
p 0.0566666675110639 1 0 40 
2 1 2 
p 0.0566666675110639 1 0 40 
2 1 2 
p 0.0566666675110639 1 0 40 
2 10 9 
p 0.0566666675110639 1 0 40 
2 4 3 
p 0.0566666675110639 1 0 40 
2 1 2 
p 0.0566666675110639 1 0 40 
2 1 2 
p 0.0566666675110639 1 0 40 
2 10 9 
p 0.0566666675110639 1 0 40 
2 4 3 
p 0.0566666675110639 1 0 40 
Surfaces 18
2 2.5000000000005107 15.000000000000014 -20 -0 -0 -1 1 0 0 -0 1 -0 2.4999999999989599
1 4.9999999999996163 15.00000000000759 -20 1 0 0 0 -1 0 0 0 -1 
1 -2.4999999999995102 17.499999999998973 -20 0 1 0 1 0 0 0 0 -1 
2 2.5000000000005107 -15.000000000000014 -20 -0 -0 -1 1 0 0 -0 1 -0 2.4999999999991052
2 -2.4999999999995102 14.999999999998975 -20 -0 -0 -1 1 0 0 -0 1 -0 2.5
1 5.981e-14 -5.5163000000000004e-13 -20 0 0 1 1 0 -0 -0 1 0 
2 -2.5000000000005107 -15.000000000000014 -20 -0 -0 -1 1 0 0 -0 1 -0 2.4999999999989981
2 2.5000000000005107 15.000000000000014 -20 0 0 -1 1 0 0 0 -1 0 0.49999999999896011
2 -2.4999999999995102 14.999999999998975 -20 0 0 -1 1 0 0 0 -1 0 0.499999999999998
2 -2.5000000000005107 -15.000000000000014 -20 0 0 -1 1 0 0 0 -1 0 0.49999999999899813
2 2.5000000000005107 -15.000000000000014 -20 0 0 -1 1 0 0 0 -1 0 0.49999999999896017
1 5.981e-14 -5.5163000000000004e-13 -20 0 0 1 1 0 -0 -0 1 0 
1 2.5000000000003815 -17.499999999999119 -20 -2.1320000000000001e-14 -1 0 -1 2.1320000000000001e-14 0 -0 0 -1 
1 -4.9999999999995088 -15.000000000000965 -20 -1 0 0 0 1 0 0 0 -1 
1 2.9999999999994706 -15.000000000007484 -20 -1 0 0 0 1 0 0 0 -1 
1 2.5000000000004898 15.499999999998973 -20 0 -1 0 -1 0 0 -0 -0 -1 
1 -2.9999999999995088 15.000000000014111 -20 1 0 0 0 -1 0 0 0 -1 
1 -2.5000000000114864 -15.499999999999012 -20 -7.4600000000000005e-15 1 0 1 7.4600000000000005e-15 0 0 0 -1 
Triangulations 18
16 14 1 0.0566666675110639
4.99999999999954 15.0000000000076 -20 4.99999999999954 15.0000000000076 20 4.93731978045261 15.5563023348969 20 4.75242216975327 16.0847093477983 20 4.45457870616707 16.5587245046496 20 4.05872450464416 16.9545787061713 20 3.58470934779201 17.2524221697561 20 3.05630233489001 17.4373197804538 20 2.5000000000005 17.499999999999 20 2.5000000000005 17.499999999999 -20 4.93731978045261 15.5563023348969 -20 4.75242216975327 16.0847093477983 -20 4.45457870616707 16.5587245046496 -20 4.05872450464416 16.9545787061713 -20 3.58470934779201 17.2524221697561 -20 3.05630233489001 17.4373197804538 -20 3.03e-12 0 3.03e-12 -40 0.224399475259011 -40 0.448798950514992 -40 0.673198425770972 -40 0.897597901026953 -40 1.12199737628293 -40 1.34639685153891 -40 1.5707963267949 -40 1.5707963267949 0 0.224399475259011 0 0.448798950514992 0 0.673198425770972 0 0.897597901026953 0 1.12199737628293 0 1.34639685153891 0 11 1 2 11 2 3 12 3 4 12 11 3 13 4 5 13 5 6 13 12 4 14 13 6 15 6 7 15 7 8 15 14 6 16 15 8 10 8 9 10 16 8 
4 2 1 0.0566666675110639
4.99999999999954 15.0000000000076 -20 4.99999999999954 15.0000000000076 20 4.99999999999962 -15.0000000000075 20 4.99999999999962 -15.0000000000075 -20 0 0 0 -40 30.0000000000151 -40 30.0000000000151 0 4 1 2 4 2 3 
4 2 1 0.0566666675110639
-2.49999999999951 17.499999999999 -20 -2.49999999999951 17.499999999999 20 2.5000000000005 17.499999999999 20 2.5000000000005 17.499999999999 -20 0 0 0 -40 5.00000000000001 -40 5 0 4 1 2 4 2 3 
64 64 1 0.0566666675110639
4.99999999999954 15.0000000000076 -20 4.93731978045261 15.5563023348969 -20 4.75242216975327 16.0847093477983 -20 4.45457870616707 16.5587245046496 -20 4.05872450464416 16.9545787061713 -20 3.58470934779201 17.2524221697561 -20 3.05630233489001 17.4373197804538 -20 2.5000000000005 17.499999999999 -20 -2.49999999999951 17.499999999999 -20 -3.05630233489034 17.4373197804535 -20 -3.58470934779349 17.252422169755 -20 -4.05872450464646 16.954578706169 -20 -4.4545787061697 16.5587245046457 -20 -4.75242216975566 16.0847093477927 -20 -4.93731978045413 15.5563023348895 -20 -4.99999999999951 14.9999999999986 -20 -4.99999999999951 -15.000000000001 -20 -4.93731978045421 -15.55630233489 -20 -4.75242216975654 -16.0847093477916 -20 -4.454578706172 -16.5587245046435 -20 -4.05872450465064 -16.9545787061662 -20 -3.58470934779984 -17.2524221697523 -20 -3.05630233489888 -17.4373197804518 -20 -2.50000000001075 -17.499999999999 -20 2.50000000000038 -17.4999999999991 -20 3.05630233488995 -17.437319780454 -20 3.58470934779201 -17.2524221697562 -20 4.05872450464423 -16.9545787061714 -20 4.45457870616719 -16.5587245046497 -20 4.75242216975342 -16.0847093477984 -20 4.93731978045277 -15.5563023348969 -20 4.99999999999962 -15.0000000000075 -20 2.99999999999947 -15.0000000000075 -20 2.99999999999947 15.0000000000076 -20 2.98746395608898 -15.1112604669842 -20 2.95048443394845 -15.2169418695632 -20 2.89091574123102 -15.3117449009321 -20 2.81174490092667 -15.3909157412353 -20 2.71694186955683 -15.4504844339513 -20 2.61126046697729 -15.4874639560902 -20 2.50000000000038 -15.499999999999 -20 -2.50000000001149 -15.499999999999 -20 -2.61126046698748 -15.4874639560879 -20 -2.71694186956567 -15.450484433947 -20 -2.81174490093384 -15.3909157412296 -20 -2.89091574123634 -15.3117449009255 -20 -2.95048443395188 -15.2169418695561 -20 -2.98746395609061 -15.1112604669772 -20 -2.99999999999951 -15.000000000001 -20 -2.99999999999951 15.0000000000141 -20 -2.98746395608791 15.1112604669881 -20 -2.9504844339475 15.2169418695644 -20 -2.8909157412313 15.3117449009311 -20 -2.81174490092911 15.3909157412328 -20 -2.71694186956203 15.4504844339484 -20 -2.61126046698548 15.4874639560881 -20 -2.50000000001138 15.499999999999 -20 2.50000000000049 15.499999999999 -20 2.61126046697736 15.4874639560902 -20 2.71694186955687 15.4504844339512 -20 2.81174490092668 15.3909157412352 -20 2.89091574123101 15.3117449009321 -20 2.95048443394843 15.2169418695632 -20 2.98746395608896 15.1112604669843 -20 4.99999999999956 15.0000000000081 4.93731978045255 15.5563023348974 4.75242216975322 16.0847093477989 4.45457870616701 16.5587245046501 4.0587245046441 16.9545787061719 3.58470934779195 17.2524221697566 3.05630233488995 17.4373197804544 2.50000000000043 17.4999999999995 -2.49999999999957 17.4999999999995 -3.0563023348904 17.4373197804541 -3.58470934779355 17.2524221697555 -4.05872450464652 16.9545787061695 -4.45457870616976 16.5587245046462 -4.75242216975572 16.0847093477932 -4.93731978045419 15.55630233489 -4.99999999999957 14.9999999999992 -4.99999999999957 -15.0000000000004 -4.93731978045427 -15.5563023348895 -4.7524221697566 -16.0847093477911 -4.45457870617206 -16.5587245046429 -4.0587245046507 -16.9545787061656 -3.5847093477999 -17.2524221697518 -3.05630233489894 -17.4373197804513 -2.50000000001155 -17.4999999999985 2.50000000000032 -17.4999999999986 3.05630233488989 -17.4373197804534 3.58470934779195 -17.2524221697557 4.05872450464417 -16.9545787061709 4.45457870616713 -16.5587245046491 4.75242216975336 -16.0847093477978 4.93731978045271 -15.5563023348963 4.99999999999956 -15.0000000000069 2.99999999999941 -15.0000000000069 2.99999999999941 15.0000000000081 2.98746395608892 -15.1112604669836 2.95048443394839 -15.2169418695626 2.89091574123096 -15.3117449009316 2.81174490092661 -15.3909157412347 2.71694186955677 -15.4504844339507 2.61126046697723 -15.4874639560896 2.50000000000032 -15.4999999999984 -2.50000000001155 -15.4999999999985 -2.61126046698754 -15.4874639560873 -2.71694186956573 -15.4504844339465 -2.8117449009339 -15.390915741229 -2.8909157412364 -15.311744900925 -2.95048443395194 -15.2169418695556 -2.98746395609067 -15.1112604669767 -2.99999999999957 -15.0000000000004 -2.99999999999957 15.0000000000147 -2.98746395608797 15.1112604669887 -2.95048443394756 15.216941869565 -2.89091574123136 15.3117449009317 -2.81174490092917 15.3909157412334 -2.71694186956209 15.4504844339489 -2.61126046698554 15.4874639560887 -2.50000000001144 15.4999999999995 2.50000000000043 15.4999999999995 2.6112604669773 15.4874639560907 2.71694186955681 15.4504844339518 2.81174490092662 15.3909157412358 2.89091574123095 15.3117449009327 2.95048443394837 15.2169418695638 2.9874639560889 15.1112604669848 45 20 21 46 19 20 46 20 45 44 21 22 44 45 21 47 18 19 47 19 46 43 22 23 43 44 22 48 18 47 42 23 24 42 43 23 49 17 18 49 18 48 41 24 25 41 42 24 40 41 25 40 25 26 39 40 26 39 26 27 38 39 27 38 27 28 37 38 28 29 37 28 29 36 37 30 36 29 30 35 36 31 35 30 31 33 35 32 33 31 16 17 49 50 15 16 50 16 49 51 14 15 51 15 50 52 13 14 52 14 51 53 13 52 12 13 53 12 53 54 12 54 55 11 55 56 11 12 55 10 56 57 10 11 56 9 10 57 58 9 57 34 33 32 8 58 59 8 9 58 1 34 32 7 59 60 7 8 59 2 64 34 2 34 1 6 60 61 6 7 60 3 63 64 3 64 2 5 61 62 5 6 61 4 62 63 4 5 62 4 63 3 
64 64 1 0.0566666675110639
4.99999999999954 15.0000000000076 20 4.93731978045261 15.5563023348969 20 4.75242216975327 16.0847093477983 20 4.45457870616707 16.5587245046496 20 4.05872450464416 16.9545787061713 20 3.58470934779201 17.2524221697561 20 3.05630233489001 17.4373197804538 20 2.5000000000005 17.499999999999 20 -2.49999999999951 17.499999999999 20 -3.05630233489034 17.4373197804535 20 -3.58470934779349 17.252422169755 20 -4.05872450464646 16.954578706169 20 -4.4545787061697 16.5587245046457 20 -4.75242216975566 16.0847093477927 20 -4.93731978045413 15.5563023348895 20 -4.99999999999951 14.9999999999986 20 -4.99999999999951 -15.000000000001 20 -4.93731978045421 -15.55630233489 20 -4.75242216975654 -16.0847093477916 20 -4.454578706172 -16.5587245046435 20 -4.05872450465064 -16.9545787061662 20 -3.58470934779984 -17.2524221697523 20 -3.05630233489888 -17.4373197804518 20 -2.50000000001075 -17.499999999999 20 2.50000000000038 -17.4999999999991 20 3.05630233488995 -17.437319780454 20 3.58470934779201 -17.2524221697562 20 4.05872450464423 -16.9545787061714 20 4.45457870616719 -16.5587245046497 20 4.75242216975342 -16.0847093477984 20 4.93731978045277 -15.5563023348969 20 4.99999999999962 -15.0000000000075 20 2.99999999999947 -15.0000000000075 20 2.99999999999947 15.0000000000076 20 2.98746395608898 -15.1112604669842 20 2.95048443394845 -15.2169418695632 20 2.89091574123102 -15.3117449009321 20 2.81174490092667 -15.3909157412353 20 2.71694186955683 -15.4504844339513 20 2.61126046697729 -15.4874639560902 20 2.50000000000038 -15.499999999999 20 -2.50000000001149 -15.499999999999 20 -2.61126046698748 -15.4874639560879 20 -2.71694186956567 -15.450484433947 20 -2.81174490093384 -15.3909157412296 20 -2.89091574123634 -15.3117449009255 20 -2.95048443395188 -15.2169418695561 20 -2.98746395609061 -15.1112604669772 20 -2.99999999999951 -15.000000000001 20 -2.99999999999951 15.0000000000141 20 -2.98746395608791 15.1112604669881 20 -2.9504844339475 15.2169418695644 20 -2.8909157412313 15.3117449009311 20 -2.81174490092911 15.3909157412328 20 -2.71694186956203 15.4504844339484 20 -2.61126046698548 15.4874639560881 20 -2.50000000001138 15.499999999999 20 2.50000000000049 15.499999999999 20 2.61126046697736 15.4874639560902 20 2.71694186955687 15.4504844339512 20 2.81174490092668 15.3909157412352 20 2.89091574123101 15.3117449009321 20 2.95048443394843 15.2169418695632 20 2.98746395608896 15.1112604669843 20 4.99999999999956 15.0000000000081 4.93731978045255 15.5563023348974 4.75242216975322 16.0847093477989 4.45457870616701 16.5587245046501 4.0587245046441 16.9545787061719 3.58470934779195 17.2524221697566 3.05630233488995 17.4373197804544 2.50000000000043 17.4999999999995 -2.49999999999957 17.4999999999995 -3.0563023348904 17.4373197804541 -3.58470934779355 17.2524221697555 -4.05872450464652 16.9545787061695 -4.45457870616976 16.5587245046462 -4.75242216975572 16.0847093477932 -4.93731978045419 15.55630233489 -4.99999999999957 14.9999999999992 -4.99999999999957 -15.0000000000004 -4.93731978045427 -15.5563023348895 -4.7524221697566 -16.0847093477911 -4.45457870617206 -16.5587245046429 -4.0587245046507 -16.9545787061656 -3.5847093477999 -17.2524221697518 -3.05630233489894 -17.4373197804513 -2.50000000001155 -17.4999999999985 2.50000000000032 -17.4999999999986 3.05630233488989 -17.4373197804534 3.58470934779195 -17.2524221697557 4.05872450464417 -16.9545787061709 4.45457870616713 -16.5587245046491 4.75242216975336 -16.0847093477978 4.93731978045271 -15.5563023348963 4.99999999999956 -15.0000000000069 2.99999999999941 -15.0000000000069 2.99999999999941 15.0000000000081 2.98746395608892 -15.1112604669836 2.95048443394839 -15.2169418695626 2.89091574123096 -15.3117449009316 2.81174490092661 -15.3909157412347 2.71694186955677 -15.4504844339507 2.61126046697723 -15.4874639560896 2.50000000000032 -15.4999999999984 -2.50000000001155 -15.4999999999985 -2.61126046698754 -15.4874639560873 -2.71694186956573 -15.4504844339465 -2.8117449009339 -15.390915741229 -2.8909157412364 -15.311744900925 -2.95048443395194 -15.2169418695556 -2.98746395609067 -15.1112604669767 -2.99999999999957 -15.0000000000004 -2.99999999999957 15.0000000000147 -2.98746395608797 15.1112604669887 -2.95048443394756 15.216941869565 -2.89091574123136 15.3117449009317 -2.81174490092917 15.3909157412334 -2.71694186956209 15.4504844339489 -2.61126046698554 15.4874639560887 -2.50000000001144 15.4999999999995 2.50000000000043 15.4999999999995 2.6112604669773 15.4874639560907 2.71694186955681 15.4504844339518 2.81174490092662 15.3909157412358 2.89091574123095 15.3117449009327 2.95048443394837 15.2169418695638 2.9874639560889 15.1112604669848 45 20 21 46 19 20 46 20 45 44 21 22 44 45 21 47 18 19 47 19 46 43 22 23 43 44 22 48 18 47 42 23 24 42 43 23 49 17 18 49 18 48 41 24 25 41 42 24 40 41 25 40 25 26 39 40 26 39 26 27 38 39 27 38 27 28 37 38 28 29 37 28 29 36 37 30 36 29 30 35 36 31 35 30 31 33 35 32 33 31 16 17 49 50 15 16 50 16 49 51 14 15 51 15 50 52 13 14 52 14 51 53 13 52 12 13 53 12 53 54 12 54 55 11 55 56 11 12 55 10 56 57 10 11 56 9 10 57 58 9 57 34 33 32 8 58 59 8 9 58 1 34 32 7 59 60 7 8 59 2 64 34 2 34 1 6 60 61 6 7 60 3 63 64 3 64 2 5 61 62 5 6 61 4 62 63 4 5 62 4 63 3 
16 14 1 0.0566666675110639
2.50000000000038 -17.4999999999991 -20 2.50000000000038 -17.4999999999991 20 3.05630233488995 -17.437319780454 20 3.58470934779201 -17.2524221697562 20 4.05872450464423 -16.9545787061714 20 4.45457870616719 -16.5587245046497 20 4.75242216975342 -16.0847093477984 20 4.93731978045277 -15.5563023348969 20 4.99999999999962 -15.0000000000075 20 4.99999999999962 -15.0000000000075 -20 3.05630233488995 -17.437319780454 -20 3.58470934779201 -17.2524221697562 -20 4.05872450464423 -16.9545787061714 -20 4.45457870616719 -16.5587245046497 -20 4.75242216975342 -16.0847093477984 -20 4.93731978045277 -15.5563023348969 -20 4.71238898038464 0 4.71238898038464 -40 4.93678845564063 -40 5.16118793089663 -40 5.38558740615262 -40 5.60998688140862 -40 5.83438635666461 -40 6.05878583192061 -40 6.2831853071766 -40 6.2831853071766 0 4.93678845564063 0 5.16118793089663 0 5.38558740615262 0 5.60998688140862 0 5.83438635666461 0 6.05878583192061 0 1 2 3 11 1 3 12 3 4 12 11 3 13 4 5 13 12 4 14 5 6 14 13 5 15 6 7 15 14 6 16 7 8 16 15 7 10 8 9 10 16 8 
16 14 1 0.0566666675110639
-2.49999999999951 17.499999999999 -20 -2.49999999999951 17.499999999999 20 -3.05630233489034 17.4373197804535 20 -3.58470934779349 17.252422169755 20 -4.05872450464646 16.954578706169 20 -4.4545787061697 16.5587245046457 20 -4.75242216975566 16.0847093477927 20 -4.93731978045413 15.5563023348895 20 -4.99999999999951 14.9999999999986 20 -4.99999999999951 14.9999999999986 -20 -3.05630233489034 17.4373197804535 -20 -3.58470934779349 17.252422169755 -20 -4.05872450464646 16.954578706169 -20 -4.4545787061697 16.5587245046457 -20 -4.75242216975566 16.0847093477927 -20 -4.93731978045413 15.5563023348895 -20 1.5707963267949 0 1.5707963267949 -40 1.79519580205133 -40 2.01959527730776 -40 2.2439947525642 -40 2.46839422782063 -40 2.69279370307706 -40 2.91719317833349 -40 3.14159265358993 -40 3.14159265358993 0 1.79519580205133 0 2.01959527730776 0 2.2439947525642 0 2.46839422782063 0 2.69279370307706 0 2.91719317833349 0 1 2 3 11 1 3 12 3 4 12 11 3 13 4 5 13 5 6 13 12 4 14 13 6 15 6 7 15 14 6 16 7 8 16 15 7 10 8 9 10 16 8 
4 2 1 0.0566666675110639
2.50000000000038 -17.4999999999991 -20 2.50000000000038 -17.4999999999991 20 -2.50000000001075 -17.499999999999 20 -2.50000000001075 -17.499999999999 -20 0 0 0 -40 5.00000000001113 -40 5.00000000001187 0 1 2 3 4 1 3 
4 2 1 0.0566666675110639
-4.99999999999951 -15.000000000001 -20 -4.99999999999951 -15.000000000001 20 -4.99999999999951 14.9999999999986 20 -4.99999999999951 14.9999999999986 -20 0 0 0 -40 29.9999999999996 -40 29.9999999999996 0 1 2 3 4 1 3 
16 14 1 0.0566666675110639
-4.99999999999951 -15.000000000001 -20 -4.99999999999951 -15.000000000001 20 -4.93731978045421 -15.55630233489 20 -4.75242216975654 -16.0847093477916 20 -4.454578706172 -16.5587245046435 20 -4.05872450465064 -16.9545787061662 20 -3.58470934779984 -17.2524221697523 20 -3.05630233489888 -17.4373197804518 20 -2.50000000001075 -17.499999999999 20 -2.50000000001075 -17.499999999999 -20 -4.93731978045421 -15.55630233489 -20 -4.75242216975654 -16.0847093477916 -20 -4.454578706172 -16.5587245046435 -20 -4.05872450465064 -16.9545787061662 -20 -3.58470934779984 -17.2524221697523 -20 -3.05630233489888 -17.4373197804518 -20 3.14159265359017 0 3.14159265359017 -40 3.36599212884599 -40 3.59039160410181 -40 3.81479107935762 -40 4.03919055461344 -40 4.26359002986926 -40 4.48798950512507 -40 4.71238898038089 -40 4.71238898038089 0 3.36599212884599 0 3.59039160410181 0 3.81479107935762 0 4.03919055461344 0 4.26359002986926 0 4.48798950512507 0 11 1 2 11 2 3 12 3 4 12 11 3 13 4 5 13 5 6 13 12 4 14 6 7 14 13 6 15 14 7 16 7 8 16 8 9 16 15 7 10 16 9 
4 2 1 0.0566666675110639
2.99999999999947 -15.0000000000075 -20 2.99999999999947 -15.0000000000075 20 2.99999999999947 15.0000000000076 20 2.99999999999947 15.0000000000076 -20 0 0 0 -40 30.0000000000151 -40 30.0000000000151 0 4 1 2 4 2 3 
16 14 1 0.0566666675110639
2.50000000000049 15.499999999999 -20 2.50000000000049 15.499999999999 20 2.61126046697736 15.4874639560902 20 2.71694186955687 15.4504844339512 20 2.81174490092668 15.3909157412352 20 2.89091574123101 15.3117449009321 20 2.95048443394843 15.2169418695632 20 2.98746395608896 15.1112604669843 20 2.99999999999947 15.0000000000076 20 2.99999999999947 15.0000000000076 -20 2.61126046697736 15.4874639560902 -20 2.71694186955687 15.4504844339512 -20 2.81174490092668 15.3909157412352 -20 2.89091574123101 15.3117449009321 -20 2.95048443394843 15.2169418695632 -20 2.98746395608896 15.1112604669843 -20 4.71238898038465 0 4.71238898038465 -40 4.9367884556389 -40 5.16118793089316 -40 5.38558740614741 -40 5.60998688140167 -40 5.83438635665592 -40 6.05878583191018 -40 6.28318530716443 -40 6.28318530716443 0 4.9367884556389 0 5.16118793089316 0 5.38558740614741 0 5.60998688140167 0 5.83438635665592 0 6.05878583191018 0 11 1 2 11 2 3 11 3 4 12 11 4 13 4 5 13 12 4 14 5 6 14 6 7 14 13 5 15 14 7 16 7 8 16 15 7 10 8 9 10 16 8 
4 2 1 0.0566666675110639
2.50000000000049 15.499999999999 -20 2.50000000000049 15.499999999999 20 -2.50000000001138 15.499999999999 20 -2.50000000001138 15.499999999999 -20 0 0 0 -40 5.00000000001187 -40 5.00000000001187 0 4 1 2 4 2 3 
16 14 1 0.0566666675110639
-2.99999999999951 15.0000000000141 -20 -2.99999999999951 15.0000000000141 20 -2.98746395608791 15.1112604669881 20 -2.9504844339475 15.2169418695644 20 -2.8909157412313 15.3117449009311 20 -2.81174490092911 15.3909157412328 20 -2.71694186956203 15.4504844339484 20 -2.61126046698548 15.4874639560881 20 -2.50000000001138 15.499999999999 20 -2.50000000001138 15.499999999999 -20 -2.98746395608791 15.1112604669881 -20 -2.9504844339475 15.2169418695644 -20 -2.8909157412313 15.3117449009311 -20 -2.81174490092911 15.3909157412328 -20 -2.71694186956203 15.4504844339484 -20 -2.61126046698548 15.4874639560881 -20 3.14159265362006 0 3.14159265362006 -40 3.36599212886876 -40 3.59039160411746 -40 3.81479107936616 -40 4.03919055461486 -40 4.26359002986356 -40 4.48798950511225 -40 4.71238898036095 -40 4.71238898036095 0 3.36599212886876 0 3.59039160411746 0 3.81479107936616 0 4.03919055461486 0 4.26359002986356 0 4.48798950511225 0 11 1 2 11 2 3 12 3 4 12 11 3 13 4 5 13 12 4 14 5 6 14 13 5 15 6 7 15 7 8 15 14 6 16 15 8 10 8 9 10 16 8 
4 2 1 0.0566666675110639
-2.99999999999951 15.0000000000141 -20 -2.99999999999951 15.0000000000141 20 -2.99999999999951 -15.000000000001 20 -2.99999999999951 -15.000000000001 -20 0 0 0 -40 30.0000000000151 -40 30.0000000000151 0 4 1 2 4 2 3 
16 14 1 0.0566666675110639
-2.50000000001149 -15.499999999999 -20 -2.50000000001149 -15.499999999999 20 -2.61126046698748 -15.4874639560879 20 -2.71694186956567 -15.450484433947 20 -2.81174490093384 -15.3909157412296 20 -2.89091574123634 -15.3117449009255 20 -2.95048443395188 -15.2169418695561 20 -2.98746395609061 -15.1112604669772 20 -2.99999999999951 -15.000000000001 20 -2.99999999999951 -15.000000000001 -20 -2.61126046698748 -15.4874639560879 -20 -2.71694186956567 -15.450484433947 -20 -2.81174490093384 -15.3909157412296 -20 -2.89091574123634 -15.3117449009255 -20 -2.95048443395188 -15.2169418695561 -20 -2.98746395609061 -15.1112604669772 -20 1.57079632681685 0 1.57079632681685 -40 1.79519580206985 -40 2.01959527732286 -40 2.24399475257587 -40 2.46839422782887 -40 2.69279370308188 -40 2.91719317833489 -40 3.14159265358789 -40 3.14159265358789 0 1.79519580206985 0 2.01959527732286 0 2.24399475257587 0 2.46839422782887 0 2.69279370308188 0 2.91719317833489 0 11 1 2 11 2 3 12 3 4 12 4 5 12 11 3 13 12 5 14 5 6 14 13 5 15 6 7 15 14 6 16 7 8 16 15 7 10 8 9 10 16 8 
4 2 1 0.0566666675110639
-2.50000000001149 -15.499999999999 -20 -2.50000000001149 -15.499999999999 20 2.50000000000038 -15.499999999999 20 2.50000000000038 -15.499999999999 -20 0 0 0 -40 5.00000000001187 -40 5.00000000001187 0 4 1 2 4 2 3 
16 14 1 0.0566666675110639
2.99999999999947 -15.0000000000075 -20 2.99999999999947 -15.0000000000075 20 2.98746395608898 -15.1112604669842 20 2.95048443394845 -15.2169418695632 20 2.89091574123102 -15.3117449009321 20 2.81174490092667 -15.3909157412353 20 2.71694186955683 -15.4504844339513 20 2.61126046697729 -15.4874639560902 20 2.50000000000038 -15.499999999999 20 2.50000000000038 -15.499999999999 -20 2.98746395608898 -15.1112604669842 -20 2.95048443394845 -15.2169418695632 -20 2.89091574123102 -15.3117449009321 -20 2.81174490092667 -15.3909157412353 -20 2.71694186955683 -15.4504844339513 -20 2.61126046697729 -15.4874639560902 -20 1.4938e-11 0 1.4938e-11 -40 0.224399475269255 -40 0.448798950523571 -40 0.673198425777888 -40 0.897597901032205 -40 1.12199737628652 -40 1.34639685154084 -40 1.57079632679516 -40 1.57079632679516 0 0.224399475269255 0 0.448798950523571 0 0.673198425777888 0 0.897597901032205 0 1.12199737628652 0 1.34639685154084 0 11 1 2 11 2 3 12 3 4 12 4 5 12 11 3 13 12 5 14 5 6 14 13 5 15 6 7 15 14 6 16 7 8 16 15 7 10 8 9 10 16 8 

TShapes 121
Ve
1.00000073e-07
4.99999999999954 15.0000000000076 -20
0 0

0101101
*
Ve
1.00000073e-07
4.99999999999954 15.0000000000076 20
0 0

0101101
*
Ed
 1.00000073e-07 1 1 0
1  1 0 0 40
2  1 1 0 0 40
4 G1 1 0 2 0
6  1 1 0
6  2 2 0
0

0101000
+121 6 -120 6 *
Ve
1.00000011e-07
2.5000000000005 17.499999999999 -20
0 0

0101101
*
Ve
1.00000011e-07
2.5000000000005 17.499999999999 20
0 0

0101101
*
Ed
 1.00000011e-07 1 1 0
1  2 0 0 40
2  2 1 0 0 40
4 G1 1 0 3 0
6  3 1 0
6  4 3 0
0

0101000
+118 6 -117 6 *
Ed
 1e-07 1 1 0
1  3 0 3.03e-12 1.5707963267949
2  3 1 11 3.03e-12 1.5707963267949
6  5 1 11
6  6 4 12
0

0101000
+121 13 -118 13 *
Ed
 1e-07 1 1 0
1  4 0 3.03e-12 1.5707963267949
2  4 1 16 3.03e-12 1.5707963267949
6  7 1 16
6  8 5 17
0

0101000
+120 18 -117 18 *
Wi

0101100
+119 0 -116 0 -115 10 +114 15 *
Fa
0  1e-07 1 0
2  1
0101000
+113 0 *
Ve
1e-07
4.99999999999962 -15.0000000000075 -20
0 0

0101101
*
Ve
1e-07
4.99999999999962 -15.0000000000075 20
0 0

0101101
*
Ed
 1e-07 1 1 0
1  5 0 0 40
2  5 4 0 0 40
4 G1 2 0 4 0
6  9 6 0
6  10 2 0
0

0101000
+111 6 -110 6 *
Ed
 1e-07 1 1 0
1  6 0 0 30.0000000000151
6  11 2 11
6  12 4 12
0

0101000
+121 13 -111 13 *
Ed
 1e-07 1 1 0
1  7 0 0 30.0000000000151
6  13 2 16
6  14 5 17
0

0101000
+120 18 -110 18 *
Wi

0101100
+119 0 -109 0 -108 10 +107 15 *
Fa
0  1e-07 2 0
2  2
0101000
+106 0 *
Ve
1.00000002e-07
-2.49999999999951 17.499999999999 -20
0 0

0101101
*
Ve
1.00000002e-07
-2.49999999999951 17.499999999999 20
0 0

0101101
*
Ed
 1.00000002e-07 1 1 0
1  8 0 0 40
2  6 5 0 0 40
4 G1 3 0 5 0
6  15 7 0
6  16 3 0
0

0101000
+104 6 -103 6 *
Ed
 1e-07 1 1 0
1  9 0 0 5
6  17 3 11
6  18 4 12
0

0101000
+104 13 -118 13 *
Ed
 1e-07 1 1 0
1  10 0 0 5
6  19 3 16
6  20 5 17
0

0101000
+103 18 -117 18 *
Wi

0101100
+102 0 -116 0 -101 10 +100 15 *
Fa
0  1e-07 3 0
2  3
0101000
+99 0 *
Ve
1e-07
2.50000000000038 -17.4999999999991 -20
0 0

0101101
*
Ed
 1e-07 1 1 0
1  11 0 4.71238898038464 6.2831853071766
2  7 4 11 4.71238898038464 6.2831853071766
6  21 6 11
6  22 4 12
0

0101000
+97 13 -111 13 *
Ve
1e-07
-4.99999999999951 14.9999999999986 -20
0 0

0101101
*
Ed
 1e-07 1 1 0
1  12 0 1.5707963267949 3.14159265358993
2  8 5 11 1.5707963267949 3.14159265358993
6  23 7 11
6  24 4 12
0

0101000
+104 13 -95 13 *
Ve
1.00000741e-07
-2.50000000001075 -17.499999999999 -20
0 0

0101101
*
Ed
 1e-07 1 1 0
1  13 0 0 5.00000000001187
6  25 4 12
6  26 8 11
0

0101000
+97 13 -93 13 *
Ve
1e-07
-4.99999999999951 -15.000000000001 -20
0 0

0101101
*
Ed
 1e-07 1 1 0
1  14 0 0 29.9999999999996
6  27 4 12
6  28 9 11
0

0101000
+91 13 -95 13 *
Ed
 1e-07 1 1 0
1  15 0 3.14159265359017 4.71238898038089
2  9 7 11 3.14159265359017 4.71238898038089
6  29 10 11
6  30 4 12
0

0101000
+91 13 -93 13 *
Wi

0101100
+115 20 -108 20 -101 20 +96 20 +94 20 -92 20 -90 20 +89 20 *
Ve
1e-07
2.99999999999947 -15.0000000000075 -20
0 0

0101101
*
Ve
1e-07
2.99999999999947 15.0000000000076 -20
0 0

0101101
*
Ed
 1e-07 1 1 0
1  16 0 0 30.0000000000151
6  31 4 24
6  32 11 24
0

0101000
+87 25 -86 25 *
Ve
1.00000001e-07
2.50000000000049 15.499999999999 -20
0 0

0101101
*
Ed
 1e-07 1 1 0
1  17 0 4.71238898038465 6.28318530716443
2  10 8 24 4.71238898038465 6.28318530716443
6  33 12 24
6  34 4 24
0

0101000
+84 25 -86 25 *
Ve
1e-07
-2.50000000001138 15.499999999999 -20
0 0

0101101
*
Ed
 1e-07 1 1 0
1  18 0 0 5.00000000001187
6  35 4 24
6  36 13 24
0

0101000
+84 25 -82 25 *
Ve
1e-07
-2.99999999999951 15.0000000000141 -20
0 0

0101101
*
Ed
 1e-07 1 1 0
1  19 0 3.14159265362006 4.71238898036095
2  11 9 24 3.14159265362006 4.71238898036095
6  37 14 24
6  38 4 24
0

0101000
+80 25 -82 25 *
Ve
1.00000001e-07
-2.99999999999951 -15.000000000001 -20
0 0

0101101
*
Ed
 1e-07 1 1 0
1  20 0 0 30.0000000000151
6  39 4 24
6  40 15 24
0

0101000
+80 25 -78 25 *
Ve
1e-07
-2.50000000001149 -15.499999999999 -20
0 0

0101101
*
Ed
 1e-07 1 1 0
1  21 0 1.57079632681685 3.14159265358789
2  12 10 24 1.57079632681685 3.14159265358789
6  41 16 24
6  42 4 24
0

0101000
+76 25 -78 25 *
Ve
1e-07
2.50000000000038 -15.499999999999 -20
0 0

0101101
*
Ed
 1e-07 1 1 0
1  22 0 0 5.00000000001187
6  43 4 24
6  44 17 24
0

0101000
+76 25 -74 25 *
Ed
 1e-07 1 1 0
1  23 0 1.4938e-11 1.57079632679516
2  13 11 24 1.4938e-11 1.57079632679516
6  45 18 24
6  46 4 24
0

0101000
+87 25 -74 25 *
Wi

0101100
-85 23 +83 23 -81 23 +79 23 -77 23 +75 23 -73 23 +72 23 *
Fa
0  1e-07 6 19
2  4
0101000
+88 0 +71 0 *
Ve
1e-07
2.50000000000038 -17.4999999999991 20
0 0

0101101
*
Ed
 1e-07 1 1 0
1  24 0 4.71238898038464 6.2831853071766
2  14 4 16 4.71238898038464 6.2831853071766
6  47 6 16
6  48 5 17
0

0101000
+69 18 -110 18 *
Ve
1e-07
-4.99999999999951 14.9999999999986 20
0 0

0101101
*
Ed
 1e-07 1 1 0
1  25 0 1.5707963267949 3.14159265358993
2  15 5 16 1.5707963267949 3.14159265358993
6  49 7 16
6  50 5 17
0

0101000
+103 18 -67 18 *
Ve
1.00000741e-07
-2.50000000001075 -17.499999999999 20
0 0

0101101
*
Ed
 1e-07 1 1 0
1  26 0 0 5.00000000001187
6  51 5 17
6  52 8 16
0

0101000
+69 18 -65 18 *
Ve
1e-07
-4.99999999999951 -15.000000000001 20
0 0

0101101
*
Ed
 1e-07 1 1 0
1  27 0 0 29.9999999999996
6  53 5 17
6  54 9 16
0

0101000
+63 18 -67 18 *
Ed
 1e-07 1 1 0
1  28 0 3.14159265359017 4.71238898038089
2  16 7 16 3.14159265359017 4.71238898038089
6  55 10 16
6  56 5 17
0

0101000
+63 18 -65 18 *
Wi

0101100
+114 27 -107 27 -100 27 +68 27 +66 27 -64 27 -62 27 +61 27 *
Ve
1e-07
2.99999999999947 -15.0000000000075 20
0 0

0101101
*
Ve
1e-07
2.99999999999947 15.0000000000076 20
0 0

0101101
*
Ed
 1e-07 1 1 0
1  29 0 0 30.0000000000151
6  57 5 30
6  58 11 30
0

0101000
+59 31 -58 31 *
Ve
1.00000001e-07
2.50000000000049 15.499999999999 20
0 0

0101101
*
Ed
 1e-07 1 1 0
1  30 0 4.71238898038465 6.28318530716443
2  17 8 30 4.71238898038465 6.28318530716443
6  59 12 30
6  60 5 30
0

0101000
+56 31 -58 31 *
Ve
1e-07
-2.50000000001138 15.499999999999 20
0 0

0101101
*
Ed
 1e-07 1 1 0
1  31 0 0 5.00000000001187
6  61 5 30
6  62 13 30
0

0101000
+56 31 -54 31 *
Ve
1e-07
-2.99999999999951 15.0000000000141 20
0 0

0101101
*
Ed
 1e-07 1 1 0
1  32 0 3.14159265362006 4.71238898036095
2  18 9 30 3.14159265362006 4.71238898036095
6  63 14 30
6  64 5 30
0

0101000
+52 31 -54 31 *
Ve
1.00000001e-07
-2.99999999999951 -15.000000000001 20
0 0

0101101
*
Ed
 1e-07 1 1 0
1  33 0 0 30.0000000000151
6  65 5 30
6  66 15 30
0

0101000
+52 31 -50 31 *
Ve
1e-07
-2.50000000001149 -15.499999999999 20
0 0

0101101
*
Ed
 1e-07 1 1 0
1  34 0 1.57079632681685 3.14159265358789
2  19 10 30 1.57079632681685 3.14159265358789
6  67 16 30
6  68 5 30
0

0101000
+48 31 -50 31 *
Ve
1e-07
2.50000000000038 -15.499999999999 20
0 0

0101101
*
Ed
 1e-07 1 1 0
1  35 0 0 5.00000000001187
6  69 5 30
6  70 17 30
0

0101000
+48 31 -46 31 *
Ed
 1e-07 1 1 0
1  36 0 1.4938e-11 1.57079632679516
2  20 11 30 1.4938e-11 1.57079632679516
6  71 18 30
6  72 5 30
0

0101000
+59 31 -46 31 *
Wi

0101100
-57 29 +55 29 -53 29 +51 29 -49 29 +47 29 -45 29 +44 29 *
Fa
0  1e-07 12 26
2  5
0101000
+60 0 +43 0 *
Ed
 1e-07 1 1 0
1  37 0 0 40
2  21 4 0 0 40
4 G1 4 0 13 0
6  73 6 0
6  74 8 0
0

0101000
+97 6 -69 6 *
Wi

0101100
+41 0 -109 0 -96 10 +68 15 *
Fa
0  1e-07 4 0
2  6
0101000
+40 0 *
Ed
 1e-07 1 1 0
1  38 0 0 40
2  22 5 0 0 40
4 G1 5 0 14 0
6  75 7 0
6  76 9 0
0

0101000
+95 6 -67 6 *
Wi

0101100
+102 0 -38 0 -94 10 +66 15 *
Fa
0  1e-07 5 0
2  7
0101000
+37 0 *
Ed
 1.00000741e-07 1 1 0
1  39 0 0 40
2  23 7 0 0 40
4 G1 13 0 7 0
6  77 10 0
6  78 8 0
0

0101000
+93 6 -65 6 *
Wi

0101100
+41 0 -35 0 -92 10 +64 15 *
Fa
0  1e-07 13 0
2  8
0101000
+34 0 *
Ed
 1e-07 1 1 0
1  40 0 0 40
2  24 7 0 0 40
4 G1 14 0 7 0
6  79 10 0
6  80 9 0
0

0101000
+91 6 -63 6 *
Wi

0101100
+32 0 -38 0 -90 10 +62 15 *
Fa
0  1e-07 14 0
2  9
0101000
+31 0 *
Wi

0101100
+32 0 -35 0 -89 10 +61 15 *
Fa
0  1e-07 7 0
2  10
0101000
+29 0 *
Ed
 1e-07 1 1 0
1  41 0 0 40
2  25 11 0 0 40
4 G1 15 0 11 0
6  81 18 0
6  82 11 0
0

0101000
+87 32 -59 32 *
Ed
 1e-07 1 1 0
1  42 0 0 40
2  26 8 0 0 40
4 G1 15 0 8 0
6  83 12 0
6  84 11 0
0

0101000
+86 32 -58 32 *
Wi

0101100
+27 0 -26 0 -85 23 +57 29 *
Fa
0  1e-07 15 0
2  11
0101000
+25 0 *
Ed
 1.00000001e-07 1 1 0
1  43 0 0 40
2  27 8 0 0 40
4 G1 8 0 16 0
6  85 12 0
6  86 13 0
0

0101000
+84 32 -56 32 *
Wi

0101100
+23 0 -26 0 -83 23 +55 29 *
Fa
0  1e-07 8 0
2  12
0101000
+22 0 *
Ed
 1e-07 1 1 0
1  44 0 0 40
2  28 9 0 0 40
4 G1 16 0 9 0
6  87 14 0
6  88 13 0
0

0101000
+82 32 -54 32 *
Wi

0101100
+23 0 -20 0 -81 23 +53 29 *
Fa
0  1e-07 16 0
2  13
0101000
+19 0 *
Ed
 1e-07 1 1 0
1  45 0 0 40
2  29 9 0 0 40
4 G1 9 0 17 0
6  89 14 0
6  90 15 0
0

0101000
+80 32 -52 32 *
Wi

0101100
+17 0 -20 0 -79 23 +51 29 *
Fa
0  1e-07 9 0
2  14
0101000
+16 0 *
Ed
 1.00000001e-07 1 1 0
1  46 0 0 40
2  30 10 0 0 40
4 G1 17 0 10 0
6  91 16 0
6  92 15 0
0

0101000
+78 32 -50 32 *
Wi

0101100
+17 0 -14 0 -77 23 +49 29 *
Fa
0  1e-07 17 0
2  15
0101000
+13 0 *
Ed
 1e-07 1 1 0
1  47 0 0 40
2  31 10 0 0 40
4 G1 10 0 18 0
6  93 16 0
6  94 17 0
0

0101000
+76 32 -48 32 *
Wi

0101100
+11 0 -14 0 -75 23 +47 29 *
Fa
0  1e-07 10 0
2  16
0101000
+10 0 *
Ed
 1e-07 1 1 0
1  48 0 0 40
2  32 11 0 0 40
4 G1 18 0 11 0
6  95 18 0
6  96 17 0
0

0101000
+74 32 -46 32 *
Wi

0101100
+11 0 -8 0 -73 23 +45 29 *
Fa
0  1e-07 18 0
2  17
0101000
+7 0 *
Wi

0101100
+27 0 -8 0 -72 23 +44 29 *
Fa
0  1e-07 11 0
2  18
0101000
+5 0 *
Sh

0101100
-112 4 +105 4 +98 4 -70 0 +42 0 -39 4 -36 4 +33 4 +30 4 -28 4 
+24 0 -21 0 +18 0 -15 0 +12 0 -9 0 +6 0 -4 0 *
So

0100000
+3 0 *
Co

1100000
+2 1 *

+1 0 