DBRep_DrawableShape

CASCADE Topology V1, (c) Matra-Datavision
Locations 3
1
              1               0               0            -2.5 
              0               1               0             -15 
              0               0               1             -25 
1
              1               0               0               0 
              0               1               0               0 
              0               0               1               0 
2  2 -1 0
Curve2ds 0
Curves 12
1 0 0 0 0 0 1 
1 0 0 50 0 1 0 
1 0 30 0 0 0 1 
1 0 0 0 0 1 0 
1 5 0 0 0 0 1 
1 5 0 50 0 1 0 
1 5 30 0 0 0 1 
1 5 0 0 0 1 0 
1 0 0 0 1 0 0 
1 0 0 50 1 0 0 
1 0 30 0 1 0 0 
1 0 30 50 1 0 0 
Polygon3D 0
PolygonOnTriangulations 24
2 1 2 
p 0.0566666675110658 1 0 50 
2 1 3 
p 0.0566666675110658 1 0 50 
2 2 4 
p 0.0566666675110658 1 0 30 
2 1 2 
p 0.0566666675110658 1 0 30 
2 3 4 
p 0.0566666675110658 1 0 50 
2 1 3 
p 0.0566666675110658 1 0 50 
2 1 3 
p 0.0566666675110658 1 0 30 
2 1 2 
p 0.0566666675110658 1 0 30 
2 1 2 
p 0.0566666675110658 1 0 50 
2 2 4 
p 0.0566666675110658 1 0 50 
2 2 4 
p 0.0566666675110658 1 0 30 
2 3 4 
p 0.0566666675110658 1 0 30 
2 3 4 
p 0.0566666675110658 1 0 50 
2 2 4 
p 0.0566666675110658 1 0 50 
2 1 3 
p 0.0566666675110658 1 0 30 
2 3 4 
p 0.0566666675110658 1 0 30 
2 1 2 
p 0.0566666675110658 1 0 5 
2 1 3 
p 0.0566666675110658 1 0 5 
2 3 4 
p 0.0566666675110658 1 0 5 
2 1 3 
p 0.0566666675110658 1 0 5 
2 1 2 
p 0.0566666675110658 1 0 5 
2 2 4 
p 0.0566666675110658 1 0 5 
2 3 4 
p 0.0566666675110658 1 0 5 
2 2 4 
p 0.0566666675110658 1 0 5 
Surfaces 6
1 0 0 0 1 0 0 0 0 1 0 -1 0 
1 5 0 0 1 0 0 0 0 1 0 -1 0 
1 0 0 0 0 1 0 0 -0 1 1 0 -0 
1 0 30 0 0 1 0 0 -0 1 1 0 -0 
1 0 0 0 0 0 1 1 0 -0 -0 1 0 
1 0 0 50 0 0 1 1 0 -0 -0 1 0 
Triangulations 6
4 2 1 0.0566666675110658
0 0 0 0 0 50 0 30 0 0 30 50 0 0 50 0 0 -30 50 -30 2 1 3 2 3 4 
4 2 1 0.0566666675110658
0 0 0 5 0 0 0 0 50 5 0 50 0 0 0 5 50 0 50 5 4 2 1 4 1 3 
4 2 1 0.0566666675110658
0 0 50 0 30 50 5 0 50 5 30 50 0 0 0 30 5 0 5 30 4 2 1 4 1 3 
4 2 1 0.0566666675110658
0 30 0 5 30 0 0 30 50 5 30 50 0 0 0 5 50 0 50 5 4 2 1 4 1 3 
4 2 1 0.0566666675110658
0 0 0 0 30 0 5 0 0 5 30 0 0 0 0 30 5 0 5 30 4 2 1 4 1 3 
4 2 1 0.0566666675110658
5 0 0 5 0 50 5 30 0 5 30 50 0 0 50 0 0 -30 50 -30 2 1 3 2 3 4 

TShapes 35
Ve
1e-07
0 0 50
0 0

0101101
*
Ve
1e-07
0 0 0
0 0

0101101
*
Ed
 1e-07 1 1 0
1  1 0 0 50
6  1 1 0
6  2 2 0
0

0101000
-35 3 +34 3 *
Ve
1e-07
0 30 50
0 0

0101101
*
Ed
 1e-07 1 1 0
1  2 0 0 30
6  3 1 0
6  4 3 0
0

0101000
-32 3 +35 3 *
Ve
1e-07
0 30 0
0 0

0101101
*
Ed
 1e-07 1 1 0
1  3 0 0 50
6  5 1 0
6  6 4 0
0

0101000
-32 3 +30 3 *
Ed
 1e-07 1 1 0
1  4 0 0 30
6  7 1 0
6  8 5 0
0

0101000
-30 3 +34 3 *
Wi

0101100
-33 0 -31 0 +29 0 +28 0 *
Fa
0  1e-07 1 0
2  1
0111000
+27 0 *
Ve
1e-07
5 0 50
0 0

0101101
*
Ve
1e-07
5 0 0
0 0

0101101
*
Ed
 1e-07 1 1 0
1  5 0 0 50
6  9 6 0
6  10 2 0
0

0101000
-25 3 +24 3 *
Ve
1e-07
5 30 50
0 0

0101101
*
Ed
 1e-07 1 1 0
1  6 0 0 30
6  11 6 0
6  12 3 0
0

0101000
-22 3 +25 3 *
Ve
1e-07
5 30 0
0 0

0101101
*
Ed
 1e-07 1 1 0
1  7 0 0 50
6  13 6 0
6  14 4 0
0

0101000
-22 3 +20 3 *
Ed
 1e-07 1 1 0
1  8 0 0 30
6  15 6 0
6  16 5 0
0

0101000
-20 3 +24 3 *
Wi

0101100
-23 0 -21 0 +19 0 +18 0 *
Fa
0  1e-07 2 0
2  6
0111000
+17 0 *
Ed
 1e-07 1 1 0
1  9 0 0 5
6  17 2 0
6  18 5 0
0

0101000
-24 3 +34 3 *
Ed
 1e-07 1 1 0
1  10 0 0 5
6  19 2 0
6  20 3 0
0

0101000
-25 3 +35 3 *
Wi

0101100
-15 0 -23 0 +14 0 +33 0 *
Fa
0  1e-07 3 0
2  2
0111000
+13 0 *
Ed
 1e-07 1 1 0
1  11 0 0 5
6  21 4 0
6  22 5 0
0

0101000
-20 3 +30 3 *
Ed
 1e-07 1 1 0
1  12 0 0 5
6  23 4 0
6  24 3 0
0

0101000
-22 3 +32 3 *
Wi

0101100
-11 0 -19 0 +10 0 +29 0 *
Fa
0  1e-07 4 0
2  4
0111000
+9 0 *
Wi

0101100
-28 0 -11 0 +18 0 +15 0 *
Fa
0  1e-07 5 0
2  5
0111000
+7 0 *
Wi

0101100
-31 0 -10 0 +21 0 +14 0 *
Fa
0  1e-07 6 0
2  3
0111000
+5 0 *
Sh

0101100
-26 0 +16 0 -12 0 +8 0 -6 0 +4 0 *
So

0100000
+3 0 *
Co

1100000
+2 1 *

+1 0 